{
  "accessors": [
    {
      "bufferView": 2,
      "componentType": 5126,
      "count": 5216,
      "max": [
        2.5868499279022217,
        5.18071985244751,
        0.10779000073671341
      ],
      "min": [
        -2.295569896697998,
        -0.008469999767839909,
        -0.07596000283956528
      ],
      "type": "VEC3"
    },
    {
      "bufferView": 2,
      "byteOffset": 62592,
      "componentType": 5126,
      "count": 5216,
      "max": [
        0.7866919636726379,
        0.9996063113212585,
        0.7900912761688232
      ],
      "min": [
        -0.7866919636726379,
        -0.9475806355476379,
        -0.7900912761688232
      ],
      "type": "VEC3"
    },
    {
      "bufferView": 1,
      "componentType": 5126,
      "count": 5216,
      "max": [
        1.0,
        1.0
      ],
      "min": [
        0.0,
        0.0
      ],
      "type": "VEC2"
    },
    {
      "bufferView": 0,
      "componentType": 5125,
      "count": 8160,
      "type": "SCALAR"
    },
    {
      "bufferView": 2,
      "byteOffset": 125184,
      "componentType": 5126,
      "count": 131,
      "max": [
        3.3352301120758057,
        3.77308988571167,
        0.3775100111961365
      ],
      "min": [
        -3.0456700325012207,
        -0.0009699999936856329,
        -0.3775100111961365
      ],
      "type": "VEC3"
    },
    {
      "bufferView": 2,
      "byteOffset": 126756,
      "componentType": 5126,
      "count": 131,
      "max": [
        0.8660361170768738,
        1.0,
        0.8145191073417664
      ],
      "min": [
        -0.865414559841156,
        -1.0,
        -0.8416962623596191
      ],
      "type": "VEC3"
    },
    {
      "bufferView": 1,
      "byteOffset": 41728,
      "componentType": 5126,
      "count": 131,
      "max": [
        0.969569981098175,
        0.9555799961090088
      ],
      "min": [
        0.060989998281002045,
        0.08212999999523163
      ],
      "type": "VEC2"
    },
    {
      "bufferView": 0,
      "byteOffset": 32640,
      "componentType": 5125,
      "count": 552,
      "type": "SCALAR"
    }
  ],
  "asset": {
    "extras": {
      "author": "imperishability (https://sketchfab.com/imperishability)",
      "license": "CC-BY-4.0 (http://creativecommons.org/licenses/by/4.0/)",
      "source": "https://sketchfab.com/3d-models/gate-ef97e30879194b7ab1901110c9756b87",
      "title": "Gate"
    },
    "generator": "Sketchfab-12.65.0",
    "version": "2.0"
  },
  "bufferViews": [
    {
      "buffer": 0,
      "byteLength": 34848,
      "name": "floatBufferViews",
      "target": 34963
    },
    {
      "buffer": 0,
      "byteLength": 42776,
      "byteOffset": 34848,
      "byteStride": 8,
      "name": "floatBufferViews",
      "target": 34962
    },
    {
      "buffer": 0,
      "byteLength": 128328,
      "byteOffset": 77624,
      "byteStride": 12,
      "name": "floatBufferViews",
      "target": 34962
    }
  ],
  "buffers": [
    {
      "byteLength": 205952,
      "uri": "scene.bin"
    }
  ],
  "images": [
    {
      "uri": "textures/Material.005_baseColor.png"
    },
    {
      "uri": "textures/Material.005_metallicRoughness.png"
    }
  ],
  "materials": [
    {
      "doubleSided": true,
      "name": "Material.005",
      "pbrMetallicRoughness": {
        "baseColorTexture": {
          "index": 0
        },
        "metallicFactor": 0.0,
        "metallicRoughnessTexture": {
          "index": 1
        }
      }
    },
    {
      "doubleSided": true,
      "name": "metall.001",
      "pbrMetallicRoughness": {
        "baseColorFactor": [
          0.02039864757605173,
          0.016716203417212323,
          0.008366612716351024,
          1.0
        ],
        "metallicFactor": 0.3858612804878049,
        "roughnessFactor": 0.4
      }
    }
  ],
  "meshes": [
    {
      "name": "zabor_Cube.000_0",
      "primitives": [
        {
          "attributes": {
            "NORMAL": 1,
            "POSITION": 0,
            "TEXCOORD_0": 2
          },
          "indices": 3,
          "material": 1,
          "mode": 4
        }
      ]
    },
    {
      "name": "kolonny_Cube.000_0",
      "primitives": [
        {
          "attributes": {
            "NORMAL": 5,
            "POSITION": 4,
            "TEXCOORD_0": 6
          },
          "indices": 7,
          "material": 0,
          "mode": 4
        }
      ]
    }
  ],
  "nodes": [
    {
      "children": [
        1
      ],
      "matrix": [
        1.0,
        0.0,
        0.0,
        0.0,
        0.0,
        2.220446049250313e-16,
        -1.0,
        0.0,
        0.0,
        1.0,
        2.220446049250313e-16,
        0.0,
        0.0,
        0.0,
        0.0,
        1.0
      ],
      "name": "Sketchfab_model"
    },
    {
      "children": [
        2,
        4
      ],
      "name": "Root"
    },
    {
      "children": [
        3
      ],
      "matrix": [
        1.0,
        0.0,
        0.0,
        0.0,
        0.0,
        -0.0,
        1.0,
        0.0,
        0.0,
        -1.0,
        -0.0,
        0.0,
        0.0,
        0.0,
        0.0,
        1.0
      ],
      "name": "zabor_Cube.000"
    },
    {
      "mesh": 0,
      "name": "zabor_Cube.000_0"
    },
    {
      "children": [
        5
      ],
      "matrix": [
        1.0,
        0.0,
        0.0,
        0.0,
        0.0,
        -0.0,
        1.0,
        0.0,
        0.0,
        -1.0,
        -0.0,
        0.0,
        0.0,
        0.0,
        0.0,
        1.0
      ],
      "name": "kolonny_Cube.000"
    },
    {
      "mesh": 1,
      "name": "kolonny_Cube.000_0"
    }
  ],
  "samplers": [
    {
      "magFilter": 9729,
      "minFilter": 9987,
      "wrapS": 10497,
      "wrapT": 10497
    }
  ],
  "scene": 0,
  "scenes": [
    {
      "name": "Sketchfab_Scene",
      "nodes": [
        0
      ]
    }
  ],
  "textures": [
    {
      "sampler": 0,
      "source": 0
    },
    {
      "sampler": 0,
      "source": 1
    }
  ]
}
