{
  "accessors": [
    {
      "bufferView": 2,
      "componentType": 5126,
      "count": 4130,
      "max": [
        0.9363279342651367,
        1.0,
        1.0147299766540527
      ],
      "min": [
        -1.078402042388916,
        -1.0,
        -1.0
      ],
      "type": "VEC3"
    },
    {
      "bufferView": 2,
      "byteOffset": 49560,
      "componentType": 5126,
      "count": 4130,
      "max": [
        1.0,
        1.0,
        1.0
      ],
      "min": [
        -1.0,
        -1.0,
        -1.0
      ],
      "type": "VEC3"
    },
    {
      "bufferView": 1,
      "componentType": 5126,
      "count": 4130,
      "max": [
        0.8551660180091858,
        1.0
      ],
      "min": [
        0.125,
        0.0
      ],
      "type": "VEC2"
    },
    {
      "bufferView": 0,
      "componentType": 5125,
      "count": 21579,
      "type": "SCALAR"
    },
    {
      "bufferView": 2,
      "byteOffset": 99120,
      "componentType": 5126,
      "count": 7305,
      "max": [
        1.0551530122756958,
        1.0,
        1.0
      ],
      "min": [
        -1.0551528930664063,
        -4.783825397491455,
        -1.0
      ],
      "type": "VEC3"
    },
    {
      "bufferView": 2,
      "byteOffset": 186780,
      "componentType": 5126,
      "count": 7305,
      "max": [
        1.0,
        1.0,
        1.0
      ],
      "min": [
        -1.0,
        -1.0,
        -1.0
      ],
      "type": "VEC3"
    },
    {
      "bufferView": 1,
      "byteOffset": 33040,
      "componentType": 5126,
      "count": 7305,
      "max": [
        0.875,
        1.0068941116333008
      ],
      "min": [
        0.125,
        0.0
      ],
      "type": "VEC2"
    },
    {
      "bufferView": 0,
      "byteOffset": 86316,
      "componentType": 5125,
      "count": 39204,
      "type": "SCALAR"
    },
    {
      "bufferView": 2,
      "byteOffset": 274440,
      "componentType": 5126,
      "count": 2399,
      "max": [
        0.9363279342651367,
        1.0,
        1.0147299766540527
      ],
      "min": [
        -1.078402042388916,
        -1.0,
        -1.0
      ],
      "type": "VEC3"
    },
    {
      "bufferView": 2,
      "byteOffset": 303228,
      "componentType": 5126,
      "count": 2399,
      "max": [
        1.0,
        1.0,
        1.0
      ],
      "min": [
        -1.0,
        -1.0,
        -1.0
      ],
      "type": "VEC3"
    },
    {
      "bufferView": 1,
      "byteOffset": 91480,
      "componentType": 5126,
      "count": 2399,
      "max": [
        0.8551660180091858,
        1.0
      ],
      "min": [
        0.125,
        0.0
      ],
      "type": "VEC2"
    },
    {
      "bufferView": 0,
      "byteOffset": 243132,
      "componentType": 5125,
      "count": 11916,
      "type": "SCALAR"
    },
    {
      "bufferView": 2,
      "byteOffset": 332016,
      "componentType": 5126,
      "count": 4,
      "max": [
        0.4763889014720917,
        0.5,
        0.0
      ],
      "min": [
        -0.4763889014720917,
        -0.5,
        0.0
      ],
      "type": "VEC3"
    },
    {
      "bufferView": 2,
      "byteOffset": 332064,
      "componentType": 5126,
      "count": 4,
      "max": [
        0.0,
        0.0,
        1.0
      ],
      "min": [
        0.0,
        0.0,
        1.0
      ],
      "type": "VEC3"
    },
    {
      "bufferView": 1,
      "byteOffset": 110672,
      "componentType": 5126,
      "count": 4,
      "max": [
        1.0,
        1.0
      ],
      "min": [
        0.0,
        0.0
      ],
      "type": "VEC2"
    },
    {
      "bufferView": 0,
      "byteOffset": 290796,
      "componentType": 5125,
      "count": 6,
      "type": "SCALAR"
    },
    {
      "bufferView": 2,
      "byteOffset": 332112,
      "componentType": 5126,
      "count": 4,
      "max": [
        0.4763889014720917,
        0.5,
        0.0
      ],
      "min": [
        -0.4763889014720917,
        -0.5,
        0.0
      ],
      "type": "VEC3"
    },
    {
      "bufferView": 2,
      "byteOffset": 332160,
      "componentType": 5126,
      "count": 4,
      "max": [
        0.0,
        0.0,
        1.0
      ],
      "min": [
        0.0,
        0.0,
        1.0
      ],
      "type": "VEC3"
    },
    {
      "bufferView": 1,
      "byteOffset": 110704,
      "componentType": 5126,
      "count": 4,
      "max": [
        1.0,
        1.0
      ],
      "min": [
        0.0,
        0.0
      ],
      "type": "VEC2"
    },
    {
      "bufferView": 0,
      "byteOffset": 290820,
      "componentType": 5125,
      "count": 6,
      "type": "SCALAR"
    },
    {
      "bufferView": 3,
      "componentType": 5126,
      "count": 3,
      "max": [
        1.0,
        0.0,
        0.0,
        0.0,
        0.0,
        1.0,
        0.0,
        0.0,
        0.0,
        0.0,
        1.0,
        0.0,
        0.0,
        0.0,
        0.0,
        1.0
      ],
      "min": [
        1.0,
        0.0,
        0.0,
        0.0,
        0.0,
        1.0,
        0.0,
        0.0,
        0.0,
        0.0,
        1.0,
        0.0,
        0.0,
        0.0,
        0.0,
        1.0
      ],
      "type": "MAT4"
    }
  ],
  "asset": {
    "extras": {
      "author": "hoursofjoytv (https://sketchfab.com/cameformodels)",
      "license": "CC-BY-4.0 (http://creativecommons.org/licenses/by/4.0/)",
      "source": "https://sketchfab.com/3d-models/poppy-playtime-chapter-4-hand-scanner-updated-e8cecb726aa0475f93489e0ed29baa61",
      "title": "poppy playtime chapter 4 Hand Scanner Updated"
    },
    "generator": "Sketchfab-16.53.0",
    "version": "2.0"
  },
  "bufferViews": [
    {
      "buffer": 0,
      "byteLength": 290844,
      "name": "floatBufferViews",
      "target": 34963
    },
    {
      "buffer": 0,
      "byteLength": 110736,
      "byteOffset": 290844,
      "byteStride": 8,
      "name": "floatBufferViews",
      "target": 34962
    },
    {
      "buffer": 0,
      "byteLength": 332208,
      "byteOffset": 401580,
      "byteStride": 12,
      "name": "floatBufferViews",
      "target": 34962
    },
    {
      "buffer": 0,
      "byteLength": 192,
      "byteOffset": 733788,
      "name": "floatBufferViews"
    }
  ],
  "buffers": [
    {
      "byteLength": 733980,
      "uri": "scene.bin"
    }
  ],
  "extensionsUsed": [
    "KHR_materials_clearcoat"
  ],
  "images": [
    {
      "uri": "textures/Material_baseColor.png"
    },
    {
      "uri": "textures/1141_sin_titulo_20241029142817_baseColor.png"
    },
    {
      "uri": "textures/1141_sin_titulo_20241029143140_baseColor.png"
    }
  ],
  "materials": [
    {
      "doubleSided": true,
      "name": "Material.001",
      "pbrMetallicRoughness": {
        "baseColorFactor": [
          0.0,
          0.0,
          0.0,
          1.0
        ],
        "metallicFactor": 0.0
      }
    },
    {
      "doubleSided": true,
      "name": "Material",
      "pbrMetallicRoughness": {
        "baseColorTexture": {
          "index": 0
        },
        "metallicFactor": 0.0,
        "roughnessFactor": 0.8211145618000169
      }
    },
    {
      "doubleSided": true,
      "name": "1141_sin_titulo_20241029142817",
      "pbrMetallicRoughness": {
        "baseColorTexture": {
          "index": 1
        },
        "metallicFactor": 0.0,
        "roughnessFactor": 0.8211145618000169
      }
    },
    {
      "doubleSided": true,
      "extensions": {
        "KHR_materials_clearcoat": {
          "clearcoatFactor": 1.0,
          "clearcoatRoughnessFactor": 0.04
        }
      },
      "name": "1141_sin_titulo_20241029143140",
      "pbrMetallicRoughness": {
        "baseColorTexture": {
          "index": 2
        },
        "metallicFactor": 0.0,
        "roughnessFactor": 0.8211145618000169
      }
    }
  ],
  "meshes": [
    {
      "name": "Cube.002_Material.001_0",
      "primitives": [
        {
          "attributes": {
            "NORMAL": 1,
            "POSITION": 0,
            "TEXCOORD_0": 2
          },
          "indices": 3,
          "material": 0,
          "mode": 4
        }
      ]
    },
    {
      "name": "Cube_Material_0",
      "primitives": [
        {
          "attributes": {
            "NORMAL": 5,
            "POSITION": 4,
            "TEXCOORD_0": 6
          },
          "indices": 7,
          "material": 1,
          "mode": 4
        }
      ]
    },
    {
      "name": "Cube.001_Material.001_0",
      "primitives": [
        {
          "attributes": {
            "NORMAL": 9,
            "POSITION": 8,
            "TEXCOORD_0": 10
          },
          "indices": 11,
          "material": 0,
          "mode": 4
        }
      ]
    },
    {
      "name": "1141_sin_titulo_20241029142817_1141_sin_titulo_20241029142817_0",
      "primitives": [
        {
          "attributes": {
            "NORMAL": 13,
            "POSITION": 12,
            "TEXCOORD_0": 14
          },
          "indices": 15,
          "material": 2,
          "mode": 4
        }
      ]
    },
    {
      "name": "1141_sin_titulo_20241029143140_1141_sin_titulo_20241029143140_0",
      "primitives": [
        {
          "attributes": {
            "NORMAL": 17,
            "POSITION": 16,
            "TEXCOORD_0": 18
          },
          "indices": 19,
          "material": 3,
          "mode": 4
        }
      ]
    }
  ],
  "nodes": [
    {
      "children": [
        1
      ],
      "matrix": [
        1.0,
        0.0,
        0.0,
        0.0,
        0.0,
        2.220446049250313e-16,
        -1.0,
        0.0,
        0.0,
        1.0,
        2.220446049250313e-16,
        0.0,
        0.0,
        0.0,
        0.0,
        1.0
      ],
      "name": "Sketchfab_model"
    },
    {
      "children": [
        2
      ],
      "matrix": [
        0.009999999776482582,
        0.0,
        0.0,
        0.0,
        0.0,
        0.0,
        0.009999999776482582,
        0.0,
        0.0,
        -0.009999999776482582,
        0.0,
        0.0,
        0.0,
        0.0,
        0.0,
        1.0
      ],
      "name": "hand scanner updated.fbx"
    },
    {
      "children": [
        3
      ],
      "name": "RootNode"
    },
    {
      "children": [
        4
      ],
      "matrix": [
        280.1384582519531,
        0.0,
        0.0,
        0.0,
        0.0,
        -4.5640347942188404e-05,
        -280.13845825194943,
        0.0,
        0.0,
        280.13845825194943,
        -4.5640347942188404e-05,
        0.0,
        448.9430847167969,
        -135.0925750732422,
        0.0,
        1.0
      ],
      "name": "hand scanner v2"
    },
    {
      "children": [
        5
      ],
      "name": "Object_4"
    },
    {
      "children": [
        6
      ],
      "name": "_rootJoint"
    },
    {
      "children": [
        7,
        8
      ],
      "name": "Bone_00",
      "rotation": [
        0.7071068286895752,
        0.0,
        0.0,
        0.7071067094802856
      ]
    },
    {
      "name": "Bone_end_01",
      "rotation": [
        -1.4693679385278594e-39,
        -0.0,
        0.0,
        1.0
      ],
      "translation": [
        0.0,
        1.0,
        -2.938735877055719e-39
      ]
    },
    {
      "children": [
        9,
        10,
        12,
        14,
        16
      ],
      "matrix": [
        0.21483279764652252,
        0.0,
        0.0,
        0.0,
        0.0,
        -7.111750664523165e-09,
        -0.043651614338158985,
        0.0,
        0.0,
        0.0533175840973847,
        -8.686537024677137e-09,
        0.0,
        0.00832223892211914,
        0.903411865234375,
        0.16815374791622162,
        1.0
      ],
      "name": "Cube.002"
    },
    {
      "mesh": 0,
      "name": "Cube.002_Material.001_0"
    },
    {
      "children": [
        11
      ],
      "matrix": [
        1.0507867336273193,
        0.0,
        0.0,
        0.0,
        0.0,
        0.9300137758255005,
        2.6469779601696886e-23,
        0.0,
        0.0,
        -2.681625642939779e-22,
        9.42187213897705,
        0.0,
        -0.06638765335083008,
        3.852177381515503,
        -7.899397850036621,
        1.0
      ],
      "name": "Cube"
    },
    {
      "mesh": 1,
      "name": "Cube_Material_0"
    },
    {
      "children": [
        13
      ],
      "matrix": [
        1.0,
        0.0,
        0.0,
        0.0,
        0.0,
        1.0000001192092896,
        2.646977960169688e-23,
        0.0,
        0.0,
        -1.06654802086979e-22,
        4.0293049812316895,
        0.0,
        0.0,
        2.5951504707336426,
        -7.899397850036621,
        1.0
      ],
      "name": "Cube.001"
    },
    {
      "mesh": 2,
      "name": "Cube.001_Material.001_0"
    },
    {
      "children": [
        15
      ],
      "matrix": [
        1.738099455833435,
        0.0,
        0.0,
        0.0,
        0.0,
        -1.1409876299396307e-06,
        7.003332138061431,
        0.0,
        0.0,
        -8.554112434387093,
        -1.3936418094044767e-06,
        0.0,
        -0.059180259704589844,
        1.470400333404541,
        -7.899397850036621,
        1.0
      ],
      "name": "1141_sin_titulo_20241029142817"
    },
    {
      "mesh": 3,
      "name": "1141_sin_titulo_20241029142817_1141_sin_titulo_20241029142817_0"
    },
    {
      "children": [
        17
      ],
      "matrix": [
        2.1669254302978516,
        0.0,
        0.0,
        0.0,
        0.0,
        -1.4224935375751647e-06,
        8.731203079223517,
        0.0,
        0.0,
        -10.664592742919782,
        -1.7374826951137086e-06,
        0.0,
        0.07260513305664063,
        -1.052739143371582,
        -0.26187753677368164,
        1.0
      ],
      "name": "1141_sin_titulo_20241029143140"
    },
    {
      "mesh": 4,
      "name": "1141_sin_titulo_20241029143140_1141_sin_titulo_20241029143140_0"
    }
  ],
  "samplers": [
    {
      "magFilter": 9729,
      "minFilter": 9987,
      "wrapS": 10497,
      "wrapT": 10497
    },
    {
      "magFilter": 9729,
      "minFilter": 9987,
      "wrapS": 33071,
      "wrapT": 33071
    }
  ],
  "scene": 0,
  "scenes": [
    {
      "name": "Sketchfab_Scene",
      "nodes": [
        0
      ]
    }
  ],
  "skins": [
    {
      "inverseBindMatrices": 20,
      "joints": [
        5,
        6,
        7
      ],
      "skeleton": 5
    }
  ],
  "textures": [
    {
      "sampler": 0,
      "source": 0
    },
    {
      "sampler": 1,
      "source": 1
    },
    {
      "sampler": 1,
      "source": 2
    }
  ]
}
